<svg width="100" height="42" viewBox="0 0 100 42" fill="none" xmlns="http://www.w3.org/2000/svg">
<path d="M93.75 31.4375L81.25 34.3125L81.1379 33.8252L68.6379 36.7002L68.75 37.1875L56.25 40.0625L56.1379 39.5752L50 40.9869L43.8621 39.5752L43.75 40.0625L31.25 37.1875L31.3621 36.7002L18.8621 33.8252L18.75 34.3125L6.25 31.4375L6.36207 30.9502L0.5 29.6019V26.375H0V19.125H0.5V15.5V11.625H0V3.875H0.5V0.5H8.33334V0H25V0.5H41.6667V0H58.3333V0.5H75V0H91.6667V0.5H99.5V7.5H100V22.5H99.5V29.6019L93.6379 30.9502L93.75 31.4375Z" fill="#D8D2C2" fill-opacity="0.8" stroke="#0F2C59" stroke-dasharray="15 15"/>
</svg>
